<?xml version="1.0" encoding="UTF-8"?>
<svg version="1.1" viewBox="0 0 16 16" xmlns="http://www.w3.org/2000/svg">
 <path d="m2.3572 3.3608c-0.22394 0.22618-0.35202 0.53146-0.35717 0.85128v7.5752c-0.00559 0.1607 0.02163 0.3209 0.07996 0.4705 0.05832 0.1496 0.14652 0.2854 0.25908 0.3991s0.24709 0.2028 0.39521 0.2617 0.30666 0.0864 0.46575 0.0808h9.6c0.3167-0.0052 0.6189-0.1346 0.8428-0.3608 0.224-0.2262 0.352-0.5314 0.3572-0.8513v-5.7872c0-0.5-0.5-1-1-1h-5l-1.2-2h-3.6c-0.31666 0.0052-0.6189 0.13457-0.84283 0.36075zm0.64222 8.4612 6.1e-4 -0.0174v-7.5814c0.00223-0.06147 0.02741-0.11807 0.06779-0.15886 0.03994-0.04034 0.0915-0.06224 0.14382-0.06432h3.0343l1.2541 2h5.3c0.1105 0 0.2 0.08796 0.2 0.19842v5.5777c-0.0022 0.0615-0.0274 0.1181-0.0678 0.1589-0.0399 0.0403-0.0915 0.0622-0.1438 0.0643h-9.6061l-0.01772 6e-4c-0.02049 7e-4 -0.04112-0.0028-0.06072-0.0106-0.01962-0.0078-0.03816-0.0199-0.05417-0.036-0.01602-0.0162-0.02915-0.0362-0.03801-0.0589-0.00887-0.0227-0.01312-0.0474-0.01226-0.0724z" fill="#d3dae3" fill-rule="evenodd"/>
</svg>
